Coordinates
version=1
nRows=32
nColumns=22
inDegrees=yes

Units are S.I. units (second, meters, Newtons, ...)
If the header above contains a line with 'inDegrees', this indicates whether rotational values are in degrees (yes) or radians (no).

endheader
time	pelvis_tilt	pelvis_list	pelvis_rotation	pelvis_tx	pelvis_ty	pelvis_tz	hip_flexion_r	hip_adduction_r	hip_rotation_r	knee_angle_r	ankle_angle_r	subtalar_angle_r	hip_flexion_l	hip_adduction_l	hip_rotation_l	knee_angle_l	ankle_angle_l	subtalar_angle_l	lumbar_extension	lumbar_bending	lumbar_rotation
      2.27000000	     -1.85167291	     -1.91101515	     51.07789950	      0.24163977	      0.90771060	      0.16871656	      0.09211537	     -4.17973466	     -7.19937170	    -52.48443350	    -12.85642466	     10.08817174	     24.63344120	      5.48610200	    -15.72968993	    -30.71256829	      9.12261398	    -12.07582815	     -2.31473233	     -6.69464144	      5.32630262
      2.28000000	     -2.06539745	     -1.71338643	     51.60963636	      0.24594709	      0.90843937	      0.16136029	      2.06278610	     -4.79380807	     -6.94442425	    -55.44926333	    -13.00001277	      9.91322615	     23.88951070	      6.01879373	    -15.41786399	    -30.46971222	      9.42570625	    -11.73195457	     -2.44936150	     -7.08823340	      4.75208592
      2.29000000	     -2.29213031	     -1.60050435	     52.21927928	      0.25000848	      0.90894551	      0.15413756	      4.13765995	     -5.34633226	     -6.69472612	    -58.24794623	    -12.59352336	      9.65912637	     23.26461666	      6.52122479	    -15.03915290	    -30.28092603	      9.75111773	    -11.31547350	     -2.53437189	     -7.42749719	      4.12157754
      2.30000000	     -2.48165044	     -1.46288904	     52.93294717	      0.25382038	      0.90949453	      0.14689492	      6.13950534	     -5.88808406	     -6.49469529	    -60.80306130	    -11.76696513	      9.55650857	     22.57575358	      7.05673365	    -14.54128407	    -30.05319515	     10.03650310	    -11.03619229	     -2.69730518	     -7.74040438	      3.40404478
      2.31000000	     -2.61508959	     -1.33366607	     53.74198427	      0.25740302	      0.91010342	      0.13962578	      8.06518038	     -6.36725498	     -6.31059813	    -63.07566723	    -10.60930752	      9.55971359	     21.82807261	      7.58363553	    -13.90700469	    -29.77534140	     10.29960299	    -10.83023696	     -2.91103285	     -7.97957487	      2.62232652
      2.32000000	     -2.70905131	     -1.22944623	     54.61581207	      0.26079326	      0.91071995	      0.13236599	      9.95147031	     -6.79490712	     -6.12467875	    -65.07464419	     -9.30607712	      9.57821577	     21.06560099	      8.07455299	    -13.20630137	    -29.48973800	     10.57328916	    -10.65141026	     -3.13702622	     -8.15297198	      1.82353786
      2.33000000	     -2.76062795	     -1.13747487	     55.54593062	      0.26400342	      0.91138569	      0.12509047	     11.76888867	     -7.17128138	     -5.91717730	    -66.77415593	     -7.94701118	      9.57366683	     20.26086873	      8.53394780	    -12.43596992	    -29.16939371	     10.84284913	    -10.51074577	     -3.38096224	     -8.26132939	      1.01472516
      2.34000000	     -2.76474139	     -1.04635776	     56.51822890	      0.26706855	      0.91212807	      0.11781926	     13.49654558	     -7.48961841	     -5.66676967	    -68.16019863	     -6.59632418	      9.51742914	     19.40504972	      8.95137396	    -11.61266410	    -28.82134037	     11.10211596	    -10.41276296	     -3.65108345	     -8.30996392	      0.21120182
      2.35000000	     -2.73876454	     -0.96817049	     57.50613868	      0.27003429	      0.91291560	      0.11058088	     15.15864852	     -7.74714510	     -5.34714696	    -69.23327764	     -5.30703200	      9.28110078	     18.51868013	      9.32766228	    -10.72918992	    -28.43785979	     11.34608018	    -10.34612861	     -3.91322796	     -8.31268045	     -0.53875227
      2.36000000	     -2.67012421	     -0.88233417	     58.51347215	      0.27292599	      0.91378135	      0.10338304	     16.71051041	     -7.93767294	     -4.96083999	    -69.97646858	     -4.06905264	      9.01622697	     17.59049986	      9.64606887	     -9.83591571	    -28.04627060	     11.57436254	    -10.30968079	     -4.19765194	     -8.27036661	     -1.27458135
      2.37000000	     -2.57277035	     -0.79898570	     59.51880775	      0.27578898	      0.91469181	      0.09625583	     18.17058356	     -8.05999364	     -4.49393792	    -70.39515911	     -2.88958255	      8.65625090	     16.64170259	      9.90551452	     -8.94004982	    -27.64680200	     11.81143297	    -10.29066509	     -4.47981536	     -8.19610522	     -1.96206800
      2.38000000	     -2.45698821	     -0.72984026	     60.52965827	      0.27861447	      0.91563201	      0.08923108	     19.54886702	     -8.11478368	     -3.95657919	    -70.49200201	     -1.79115962	      8.35982258	     15.69931264	     10.11361371	     -8.01597149	    -27.24755373	     11.99233302	    -10.27974957	     -4.74924074	     -8.09719718	     -2.60995643
      2.39000000	     -2.32865994	     -0.67865719	     61.53368488	      0.28145196	      0.91656263	      0.08228894	     20.84588562	     -8.11705874	     -3.36544632	    -70.27984427	     -0.72746938	      8.10883453	     14.77166425	     10.26039977	     -7.11778519	    -26.85455825	     12.20087061	    -10.26750659	     -4.98696138	     -7.97769927	     -3.21957669
      2.40000000	     -2.16765486	     -0.61758421	     62.53774043	      0.28426565	      0.91755756	      0.07547358	     22.01606679	     -8.06854914	     -2.74618477	    -69.75313102	      0.25572126	      7.68497910	     13.82658185	     10.36056713	     -6.16028029	    -26.46536487	     12.36527116	    -10.27887881	     -5.25410640	     -7.83687353	     -3.76145985
      2.41000000	     -2.01757144	     -0.60515852	     63.53705001	      0.28709300	      0.91846120	      0.06875585	     23.13956731	     -7.99372057	     -2.11065982	    -68.94256280	      1.20828723	      7.46628927	     12.95130422	     10.40257255	     -5.26337305	    -26.09555301	     12.56147250	    -10.27075307	     -5.44887103	     -7.68621274	     -4.29863719
      2.42000000	     -1.82835970	     -0.56959560	     64.54218968	      0.28988840	      0.91944354	      0.06212844	     24.10194280	     -7.89520730	     -1.50169445	    -67.82755480	      2.05883265	      7.07220121	     12.04360194	     10.40151092	     -4.30379497	    -25.72922248	     12.71284158	    -10.27960015	     -5.69151217	     -7.50888157	     -4.78509282
      2.43000000	     -1.64917991	     -0.57447036	     65.55181954	      0.29267944	      0.92033250	      0.05556072	     24.99648653	     -7.80347704	     -0.93453932	    -66.44945515	      2.85385877	      6.78438792	     11.19478856	     10.35620359	     -3.37541316	    -25.37488470	     12.88494245	    -10.27023781	     -5.87527324	     -7.32641873	     -5.26692018
      2.44000000	     -1.46749382	     -0.59218027	     66.56727387	      0.29545569	      0.92117975	      0.04903109	     25.78258920	     -7.72649322	     -0.42986461	    -64.81083227	      3.56844098	      6.49693744	     10.36960817	     10.27710033	     -2.43742075	    -25.02884511	     13.06046219	    -10.25142222	     -6.03778871	     -7.13652298	     -5.73489166
      2.45000000	     -1.28488778	     -0.61343318	     67.58290605	      0.29821921	      0.92197673	      0.04254446	     26.45925619	     -7.66913765	      0.00675029	    -62.93907486	      4.19352856	      6.16369325	      9.56109138	     10.16903739	     -1.49737372	    -24.69101465	     13.23657344	    -10.23000219	     -6.19261219	     -6.94622400	     -6.18553855
      2.46000000	     -1.10761415	     -0.64545259	     68.59939563	      0.30097964	      0.92271315	      0.03605324	     27.03149592	     -7.63733738	      0.35665084	    -60.84344997	      4.73597928	      5.79839580	      8.76772468	     10.03501882	     -0.55363018	    -24.34629090	     13.40963453	    -10.21838943	     -6.31980537	     -6.75731515	     -6.62491810
      2.47000000	     -0.93908539	     -0.68447500	     69.60959227	      0.30374876	      0.92337951	      0.02957308	     27.50793078	     -7.62306620	      0.63197132	    -58.55002093	      5.18899990	      5.42746178	      7.99048912	      9.87833531	      0.38361392	    -23.99778519	     13.56970455	    -10.22962354	     -6.42701092	     -6.57834165	     -7.05332050
      2.48000000	     -0.78176000	     -0.72396691	     70.60365129	      0.30654117	      0.92398158	      0.02307910	     27.88644308	     -7.62340869	      0.83489470	    -56.07376012	      5.56423265	      5.07204445	      7.21266034	      9.70147243	      1.29065140	    -23.62751941	     13.72275047	    -10.26678203	     -6.51585350	     -6.41469919	     -7.46032062
      2.49000000	     -0.66043522	     -0.81341716	     71.59353039	      0.30934217	      0.92440273	      0.01661289	     28.24423525	     -7.63884384	      0.97313974	    -53.45143466	      5.84803116	      4.89631055	      6.51294783	      9.51350332	      2.17089583	    -23.26739529	     13.88743464	    -10.29699295	     -6.52898970	     -6.27947617	     -7.87126145
      2.50000000	     -0.51559331	     -0.79422947	     72.50359576	      0.31229283	      0.92497335	      0.01012200	     28.38405422	     -7.60850139	      1.13121716	    -50.65165468	      6.00589150	      4.65094447	      5.64527099	      9.29729543	      2.95939363	    -22.80481532	     13.99700975	    -10.36754317	     -6.65955801	     -6.16594345	     -8.20363354
      2.51000000	     -0.41554361	     -0.82763189	     73.38740636	      0.31529842	      0.92534124	      0.00367780	     28.52409628	     -7.57352411	      1.27124874	    -47.73859381	      6.04429706	      4.64240959	      4.85279826	      9.07681843	      3.69852558	    -22.33540866	     14.12838460	    -10.39712261	     -6.71271533	     -6.09424919	     -8.52600595
      2.52000000	     -0.33515179	     -0.85281488	     74.21957221	      0.31841823	      0.92562328	     -0.00275169	     28.58850078	     -7.50868828	      1.43330429	    -44.71307238	      5.95616864	      4.80496470	      4.03458680	      8.84482207	      4.37338519	    -21.80866085	     14.26521724	    -10.39252336	     -6.76207877	     -6.05917683	     -8.80965998
      2.53000000	     -0.27858632	     -0.87889245	     75.00022363	      0.32163391	      0.92578446	     -0.00914887	     28.59344197	     -7.41238014	      1.64744951	    -41.59044249	      5.74861022	      5.12750673	      3.20788527	      8.60754215	      4.99753097	    -21.23641176	     14.41606141	    -10.34608661	     -6.80280406	     -6.05758458	     -9.06866412
      2.54000000	     -0.24685245	     -0.90679371	     75.71338489	      0.32498348	      0.92580998	     -0.01557099	     28.54469787	     -7.28878581	      1.91711721	    -38.38988070	      5.44756308	      5.60969563	      2.35019597	      8.36652674	      5.56763325	    -20.58354703	     14.58074261	    -10.25335231	     -6.82134947	     -6.09479131	     -9.27629657
      2.55000000	     -0.23912543	     -0.94145155	     76.37640464	      0.32841103	      0.92566387	     -0.02201113	     28.44424425	     -7.14493915	      2.26466200	    -35.12131743	      5.08761895	      6.19551032	      1.48977963	      8.12947243	      6.12049914	    -19.89776865	     14.76753586	    -10.12451018	     -6.82054827	     -6.15865774	     -9.46759850
      2.56000000	     -0.25710533	     -0.98360697	     76.98702512	      0.33192568	      0.92533136	     -0.02855359	     28.29572287	     -7.00123467	      2.66523747	    -31.80618499	      4.69564580	      6.86421667	      0.60645142	      7.89635128	      6.64517248	    -19.14772447	     14.97893323	     -9.97025401	     -6.78598623	     -6.25336145	     -9.63056580
      2.57000000	     -0.29917655	     -1.02781517	     77.54616150	      0.33550881	      0.92480186	     -0.03524192	     28.09520210	     -6.87217298	      3.10635184	    -28.46162043	      4.31811404	      7.59580849	     -0.30495391	      7.67061261	      7.14860924	    -18.34250682	     15.20701176	     -9.80398526	     -6.71877530	     -6.37312375	     -9.77412860
      2.58000000	     -0.36375276	     -1.06936456	     78.06570238	      0.33912673	      0.92407321	     -0.04208601	     27.83922048	     -6.77610153	      3.54822405	    -25.10294052	      3.95994558	      8.34950101	     -1.23854495	      7.45492453	      7.63859082	    -17.50433545	     15.45317171	     -9.64063391	     -6.62903861	     -6.51568158	     -9.90612493
